<svg width="134" height="41" viewBox="0 0 134 41" fill="none" xmlns="http://www.w3.org/2000/svg">
<path d="M128.9 40.4H5.30002C2.60002 40.4 0.400024 38.2 0.400024 35.4V5.59998C0.400024 2.89998 2.60002 0.599976 5.30002 0.599976H128.9C131.6 0.599976 133.8 2.79998 133.8 5.59998V35.4C133.9 38.1 131.7 40.4 128.9 40.4Z" fill="#E6E6E6"/>
<path d="M128.9 0.700012H5.30002C2.60002 0.700012 0.400024 2.89998 0.400024 5.59998V35.3C0.400024 38 2.60002 40.2 5.30002 40.2H128.9C131.6 40.2 133.8 38 133.8 35.3V5.59998C133.9 2.99998 131.6 0.700012 128.9 0.700012ZM128.9 1.5C131.2 1.5 133.1 3.40001 133.1 5.70001V35.4C133.1 37.7 131.2 39.6 128.9 39.6H5.30002C3.00002 39.6 1.10004 37.7 1.10004 35.4V5.70001C1.10004 3.40001 3.00002 1.5 5.30002 1.5H128.9Z" fill="#494949"/>
<path d="M106.1 30.4H107.9V18H106.1V30.4ZM122.7 22.5L120.6 27.9H120.5L118.3 22.5H116.3L119.6 30L117.7 34.2H119.6L124.7 22.5H122.7ZM112.3 29C111.7 29 110.9 28.7 110.9 28C110.9 27 111.9 26.7 112.9 26.7C113.7 26.7 114.1 26.9 114.6 27.1C114.3 28.2 113.4 29 112.3 29ZM112.5 22.2C111.2 22.2 109.8 22.8 109.2 24.1L110.8 24.8C111.1 24.1 111.8 23.9 112.5 23.9C113.5 23.9 114.4 24.5 114.4 25.5V25.6C114.1 25.4 113.3 25.1 112.5 25.1C110.7 25.1 108.9 26.1 108.9 27.9C108.9 29.6 110.3 30.6 112 30.6C113.2 30.6 113.9 30 114.4 29.4H114.5V30.4H116.3V25.7C116.3 23.4 114.6 22.2 112.5 22.2ZM101.1 24H98.5V19.8H101.1C102.5 19.8 103.3 20.9 103.3 21.9C103.3 22.8 102.5 24 101.1 24ZM101.1 18H96.7V30.4H98.5V25.7H101.1C103.1 25.7 105.2 24.2 105.2 21.9C105.1 19.5 103.1 18 101.1 18ZM77 29C75.7 29 74.7 27.9 74.7 26.5C74.7 25 75.8 23.9 77 23.9C78.3 23.9 79.2 25 79.2 26.5C79.2 27.9 78.2 29 77 29ZM79.1 23.2C78.6 22.7 77.8 22.3 76.8 22.3C74.7 22.3 72.8 24.1 72.8 26.5C72.8 28.9 74.7 30.7 76.8 30.7C77.8 30.7 78.6 30.3 79 29.7H79.1V30.3C79.1 31.9 78.2 32.8 76.9 32.8C75.8 32.8 75.1 32 74.8 31.3L73.2 32C73.7 33.1 74.9 34.5 76.9 34.5C79.1 34.5 80.9 33.2 80.9 30.1V22.6H79.1V23.2ZM82.1 30.4H83.9V18H82.1V30.4ZM86.7 26.3C86.7 24.7 88 23.8 88.9 23.8C89.6 23.8 90.3 24.2 90.5 24.7L86.7 26.3ZM92.4 24.9C92 24 91 22.2 88.8 22.2C86.6 22.2 84.8 23.9 84.8 26.4C84.8 28.8 86.6 30.6 89 30.6C90.9 30.6 92 29.4 92.5 28.7L91.1 27.7C90.6 28.4 90 28.9 89 28.9C88.1 28.9 87.4 28.5 87 27.6L92.6 25.3L92.4 24.9ZM47.6 23.5V25.3H51.9C51.8 26.3 51.4 27 50.9 27.5C50.3 28.1 49.3 28.8 47.6 28.8C45 28.8 42.9 26.7 42.9 24.1C42.9 21.5 45 19.4 47.6 19.4C49 19.4 50.1 20 50.8 20.7L52.1 19.4C51 18.4 49.6 17.6 47.6 17.6C44 17.6 41 20.5 41 24.1C41 27.7 44 30.6 47.6 30.6C49.5 30.6 51 30 52.2 28.8C53.4 27.6 53.7 26 53.7 24.6C53.7 24.2 53.7 23.8 53.6 23.5H47.6ZM58.6 29C57.3 29 56.2 27.9 56.2 26.5C56.2 25 57.3 24 58.6 24C59.9 24 61 25 61 26.5C60.9 28 59.8 29 58.6 29ZM58.6 22.3C56.3 22.3 54.4 24.1 54.4 26.5C54.4 28.9 56.3 30.7 58.6 30.7C60.9 30.7 62.8 28.9 62.8 26.5C62.8 24 60.9 22.3 58.6 22.3ZM67.8 29C66.5 29 65.4 27.9 65.4 26.5C65.4 25 66.5 24 67.8 24C69.1 24 70.2 25 70.2 26.5C70.1 28 69.1 29 67.8 29ZM67.8 22.2C65.5 22.2 63.6 24 63.6 26.4C63.6 28.8 65.5 30.6 67.8 30.6C70.1 30.6 72 28.8 72 26.4C72 24 70.1 22.2 67.8 22.2Z" fill="#494949"/>
<path d="M20.9 20L10.4 31.2C10.7 32.4 11.8 33.3 13.1 33.3C13.6 33.3 14.1 33.2 14.5 32.9L26.3 26.1L20.9 20Z" fill="#EB3131"/>
<path d="M31.5 18.1L26.4 15.1L20.6 20.2L26.4 26L31.5 23.1C32.4 22.6 33 21.7 33 20.6C33 19.5 32.4 18.5 31.5 18.1Z" fill="#F6B60B"/>
<path d="M10.4 9.90002C10.3 10.1 10.3 10.4 10.3 10.6V30.3C10.3 30.6 10.3 30.8 10.4 31L21.3 20.1L10.4 9.90002Z" fill="#5778C5"/>
<path d="M21 20.5L26.4 15.1L14.6 8.20001C14.2 7.90001 13.7 7.79999 13.1 7.79999C11.8 7.79999 10.7 8.70002 10.4 9.90002L21 20.5Z" fill="#3BAD49"/>
<path d="M47.3 10.4H44.4V11.1H46.6C46.5 11.7 46.3 12.1 45.9 12.5C45.5 12.8 45 13 44.4 13C43.8 13 43.2 12.8 42.8 12.3C42.4 11.8 42.1 11.3 42.1 10.6C42.1 9.89998 42.3 9.40002 42.8 8.90002C43.2 8.50002 43.8 8.20001 44.4 8.20001C44.7 8.20001 45 8.30002 45.3 8.40002C45.6 8.50002 45.8 8.70002 46 8.90002L46.5 8.40002C46.3 8.10002 45.9 7.90001 45.5 7.70001C45.1 7.50001 44.7 7.5 44.3 7.5C43.4 7.5 42.7 7.80002 42.1 8.40002C41.5 9.00002 41.2 9.69998 41.2 10.6C41.2 11.5 41.5 12.2 42.1 12.8C42.7 13.4 43.4 13.7 44.3 13.7C45.2 13.7 45.9 13.4 46.5 12.8C47 12.3 47.2 11.6 47.2 10.8C47.3 10.7 47.3 10.6 47.3 10.4ZM48.4 7.70001V13.7H51.9V13H49.2V11.1H51.6V10.4H49.2V8.5H51.9V7.79999L48.4 7.70001ZM56.7 8.40002V7.70001H52.6V8.40002H54.3V13.6H55.1V8.40002H56.7ZM60.4 7.59998H59.6V13.6H60.4V7.59998ZM65.5 8.40002V7.70001H61.4V8.40002H63.1V13.6H63.9V8.40002H65.5ZM73.2 8.40002C72.6 7.80002 71.9 7.5 71 7.5C70.1 7.5 69.4 7.80002 68.8 8.40002C68.2 9.00002 67.9 9.69998 67.9 10.6C67.9 11.5 68.2 12.2 68.8 12.8C69.4 13.4 70.1 13.7 71 13.7C71.9 13.7 72.6 13.4 73.2 12.8C73.8 12.2 74.1 11.5 74.1 10.6C74.1 9.69998 73.8 9.00002 73.2 8.40002ZM69.4 8.90002C69.8 8.50002 70.4 8.20001 71 8.20001C71.6 8.20001 72.2 8.40002 72.6 8.90002C73 9.30002 73.3 9.89998 73.3 10.6C73.3 11.3 73.1 11.9 72.6 12.3C72.2 12.7 71.6 13 71 13C70.4 13 69.8 12.8 69.4 12.3C69 11.9 68.8 11.3 68.8 10.6C68.7 9.89998 69 9.40002 69.4 8.90002ZM75.9 9.90002V8.79999L78.9 13.7H79.7V7.70001H78.9V11.2V12.3L76 7.70001H75.1V13.7H75.9V9.90002Z" fill="#494949"/>
</svg>
