<?xml version="1.0" encoding="UTF-8" standalone="no"?>
<svg
   xmlns:dc="http://purl.org/dc/elements/1.1/"
   xmlns:cc="http://creativecommons.org/ns#"
   xmlns:rdf="http://www.w3.org/1999/02/22-rdf-syntax-ns#"
   xmlns:svg="http://www.w3.org/2000/svg"
   xmlns="http://www.w3.org/2000/svg"
   xmlns:sodipodi="http://sodipodi.sourceforge.net/DTD/sodipodi-0.dtd"
   xmlns:inkscape="http://www.inkscape.org/namespaces/inkscape"
   width="120"
   height="120"
   viewBox="0 0 120 120"
   fill="none"
   version="1.1"
   id="svg26"
   sodipodi:docname="linto-app-logo-txt$.svg"
   inkscape:version="1.0.2 (e86c870879, 2021-01-15)">
  <metadata
     id="metadata32">
    <rdf:RDF>
      <cc:Work
         rdf:about="">
        <dc:format>image/svg+xml</dc:format>
        <dc:type
           rdf:resource="http://purl.org/dc/dcmitype/StillImage" />
        <dc:title></dc:title>
      </cc:Work>
    </rdf:RDF>
  </metadata>
  <defs
     id="defs30" />
  <sodipodi:namedview
     pagecolor="#ffffff"
     bordercolor="#666666"
     borderopacity="1"
     objecttolerance="10"
     gridtolerance="10"
     guidetolerance="10"
     inkscape:pageopacity="0"
     inkscape:pageshadow="2"
     inkscape:window-width="1920"
     inkscape:window-height="1016"
     id="namedview28"
     showgrid="false"
     inkscape:zoom="4.681904"
     inkscape:cx="30.778284"
     inkscape:cy="64.942607"
     inkscape:window-x="0"
     inkscape:window-y="27"
     inkscape:window-maximized="1"
     inkscape:current-layer="svg26" />
  <g
     id="g869"
     transform="matrix(0.82710459,0,0,0.82710459,18.313931,5.6592284)">
    <path
       d="M 3.70001,131.1 V 118.9 H 6.29999 V 129 H 12.7 v 2.1 z"
       fill="#151515"
       id="path2" />
    <path
       d="m 14.5,120.9 v -2.2 h 2.4 v 2.2 z m 0,10.2 v -8.9 h 2.4 v 8.9 z"
       fill="#151515"
       id="path4" />
    <path
       d="m 27.7,131.1 h -2.4 v -4.6 c 0,-1 -0.1,-1.6 -0.2,-1.9 -0.1,-0.3 -0.3,-0.5 -0.5,-0.7 -0.2,-0.2 -0.5,-0.2 -0.8,-0.2 -0.4,0 -0.8,0.1 -1.1,0.3 -0.3,0.2 -0.6,0.5 -0.7,0.9 -0.1,0.4 -0.2,1.1 -0.2,2.1 v 4.1 h -2.4 v -8.9 h 2.3 v 1.3 c 0.8,-1 1.8,-1.5 3,-1.5 0.5,0 1,0.1 1.5,0.3 0.4,0.2 0.8,0.4 1,0.7 0.2,0.3 0.4,0.6 0.5,1 0.1,0.4 0.1,0.9 0.1,1.6 v 5.5 z"
       fill="#151515"
       id="path6" />
    <path
       d="m 33.1,131.1 v -10.3 h -3.8 v -2.1 h 10.1 v 2.1 h -3.8 v 10.3 z"
       fill="#151515"
       id="path8" />
    <path
       d="m 40.2,125 c 0,-1.3 0.2,-2.3 0.6,-3.2 0.3,-0.6 0.7,-1.2 1.2,-1.7 0.5,-0.5 1,-0.9 1.6,-1.1 0.8,-0.3 1.7,-0.5 2.7,-0.5 1.9,0 3.4,0.6 4.5,1.7 1.1,1.1 1.7,2.7 1.7,4.7 0,2 -0.6,3.6 -1.7,4.7 -1.1,1.1 -2.6,1.7 -4.5,1.7 -1.9,0 -3.4,-0.6 -4.5,-1.7 -1,-1.1 -1.6,-2.6 -1.6,-4.6 z m 2.6,-0.1 c 0,1.4 0.3,2.5 1,3.2 0.7,0.7 1.5,1.1 2.5,1.1 1,0 1.9,-0.4 2.5,-1.1 0.7,-0.7 1,-1.8 1,-3.2 0,-1.4 -0.3,-2.5 -1,-3.2 -0.6,-0.7 -1.5,-1 -2.5,-1 -1,0 -1.9,0.4 -2.6,1.1 -0.5,0.6 -0.9,1.7 -0.9,3.1 z"
       fill="#151515"
       id="path10" />
    <path
       d="m 73.5,131.4 h -2.9 l -1.2,-3 h -5.3 l -1.1,3 h -2.8 l 5.2,-13.2 h 2.8 z m -4.9,-5.2 -1.8,-4.9 -1.8,4.9 z"
       fill="#151515"
       id="path12" />
    <path
       d="m 74.9,131.4 v -13.2 h 4.3 c 1.6,0 2.7,0.1 3.2,0.2 0.8,0.2 1.4,0.6 1.9,1.3 0.5,0.7 0.8,1.5 0.8,2.6 0,0.8 -0.1,1.5 -0.4,2 -0.3,0.5 -0.7,1 -1.1,1.3 -0.5,0.3 -0.9,0.5 -1.4,0.6 -0.6,0.1 -1.6,0.2 -2.8,0.2 h -1.7 v 5 z m 2.7,-11 v 3.8 h 1.5 c 1.1,0 1.8,-0.1 2.1,-0.2 0.4,-0.1 0.6,-0.4 0.8,-0.7 0.2,-0.3 0.3,-0.6 0.3,-1 0,-0.5 -0.1,-0.9 -0.4,-1.2 -0.3,-0.3 -0.6,-0.5 -1.1,-0.6 -0.3,-0.1 -1,-0.1 -1.9,-0.1 z"
       fill="#151515"
       id="path14" />
    <path
       d="m 87.3,131.4 v -13.2 h 4.3 c 1.6,0 2.7,0.1 3.2,0.2 0.8,0.2 1.4,0.6 1.9,1.3 0.5,0.7 0.8,1.5 0.8,2.6 0,0.8 -0.1,1.5 -0.4,2 -0.3,0.5 -0.7,1 -1.1,1.3 -0.5,0.3 -0.9,0.5 -1.4,0.6 -0.6,0.1 -1.6,0.2 -2.8,0.2 h -1.7 v 5 z m 2.6,-11 v 3.8 h 1.5 c 1.1,0 1.8,-0.1 2.1,-0.2 0.4,-0.1 0.6,-0.4 0.8,-0.7 0.2,-0.3 0.3,-0.6 0.3,-1 0,-0.5 -0.1,-0.9 -0.4,-1.2 -0.3,-0.3 -0.6,-0.5 -1.1,-0.6 -0.3,-0.1 -1,-0.1 -1.9,-0.1 z"
       fill="#151515"
       id="path16" />
    <path
       d="M 85.2,85.9 C 94.6,76.8 100.4,64.1 100.4,50 100.4,22.4 78,0 50.4,0 22.8,0 0.399994,22.4 0.399994,50 0.399994,77.6 22.8,100 50.4,100 h 42.4 c 0,0 -7.6,-6.5 -7.6,-14.1 z"
       fill="#44baeb"
       id="path18" />
    <path
       d="m 63.5,50.9 c 2.7062,0 4.9,-2.1938 4.9,-4.9 0,-2.7062 -2.1938,-4.9 -4.9,-4.9 -2.7062,0 -4.9,2.1938 -4.9,4.9 0,2.7062 2.1938,4.9 4.9,4.9 z"
       fill="#000000"
       id="path20" />
    <path
       d="m 37.1,50.9 c 2.7062,0 4.9,-2.1938 4.9,-4.9 0,-2.7062 -2.1938,-4.9 -4.9,-4.9 -2.7062,0 -4.9,2.1938 -4.9,4.9 0,2.7062 2.1938,4.9 4.9,4.9 z"
       fill="#000000"
       id="path22" />
    <path
       d="m 51.2,69.2 c -4.3,0 -8.7,-0.7999 -8.8,-0.7999 -1,-0.2 -1.1,-1 -0.9,-2 0.2,-1 0.6,-1.9001 1.6,-1.7001 0.1,0 4.2,0.7001 8.2,0.7001 4,0 8.1,-0.7001 8.2,-0.7001 1,-0.2 1.3,0.6 1.4,1.6 0.2,1 0.2,1.9001 -0.8,2.1001 -0.2,0 -4.6,0.7999 -8.9,0.7999 z"
       fill="#000000"
       id="path24" />
  </g>
</svg>
