<?xml version="1.0" encoding="UTF-8" standalone="no"?>
<svg
   xmlns:dc="http://purl.org/dc/elements/1.1/"
   xmlns:cc="http://creativecommons.org/ns#"
   xmlns:rdf="http://www.w3.org/1999/02/22-rdf-syntax-ns#"
   xmlns:svg="http://www.w3.org/2000/svg"
   xmlns="http://www.w3.org/2000/svg"
   xmlns:sodipodi="http://sodipodi.sourceforge.net/DTD/sodipodi-0.dtd"
   xmlns:inkscape="http://www.inkscape.org/namespaces/inkscape"
   width="180"
   height="60"
   viewBox="0 0 180 60"
   fill="none"
   version="1.1"
   id="svg20"
   sodipodi:docname="linto-app-logo.svg"
   inkscape:version="1.0.2 (e86c870879, 2021-01-15)">
  <metadata
     id="metadata26">
    <rdf:RDF>
      <cc:Work
         rdf:about="">
        <dc:format>image/svg+xml</dc:format>
        <dc:type
           rdf:resource="http://purl.org/dc/dcmitype/StillImage" />
        <dc:title></dc:title>
      </cc:Work>
    </rdf:RDF>
  </metadata>
  <defs
     id="defs24" />
  <sodipodi:namedview
     pagecolor="#ffffff"
     bordercolor="#666666"
     borderopacity="1"
     objecttolerance="10"
     gridtolerance="10"
     guidetolerance="10"
     inkscape:pageopacity="0"
     inkscape:pageshadow="2"
     inkscape:window-width="1920"
     inkscape:window-height="1016"
     id="namedview22"
     showgrid="false"
     inkscape:zoom="3.4235387"
     inkscape:cx="19.094758"
     inkscape:cy="30.542441"
     inkscape:window-x="0"
     inkscape:window-y="27"
     inkscape:window-maximized="1"
     inkscape:current-layer="svg20" />
  <g
     id="g860"
     transform="translate(9.7000122,17.1)">
    <path
       d="M 0.0999756,24.9 V 2.60001 H 4.79998 V 21.1 H 16.4 v 3.8 z"
       fill="#ffffff"
       id="path2" />
    <path
       d="m 19.6,6.39999 v -4 H 24 v 4 z M 19.6,24.9 V 8.59999 H 24 V 24.9 Z"
       fill="#ffffff"
       id="path4" />
    <path
       d="m 43.7,24.9 h -4.4 v -8.3 c 0,-1.8 -0.1,-2.9 -0.3,-3.4 -0.2,-0.5 -0.5,-0.9 -0.9,-1.2 -0.4,-0.3 -0.9,-0.4 -1.5,-0.4 -0.8,0 -1.5,0.2 -2.1,0.6 -0.6,0.4 -1,0.9 -1.3,1.6 -0.2,0.7 -0.3,1.9 -0.3,3.7 v 7.4 H 28.5 V 8.60001 h 4.1 V 11 c 1.5,-1.79999 3.3,-2.79999 5.5,-2.79999 1,0 1.9,0.2 2.7,0.5 0.8,0.3 1.4,0.8 1.8,1.29999 0.4,0.5 0.7,1.1 0.9,1.8 0.2,0.7 0.2,1.6 0.2,2.9 z"
       fill="#ffffff"
       id="path6" />
    <path
       d="M 53.4,24.9 V 6.3 H 46.6 V 2.5 H 64.9 V 6.3 H 58.1 V 25 h -4.7 z"
       fill="#ffffff"
       id="path8" />
    <path
       d="M 66.4,13.8 C 66.4,11.5 66.8,9.6 67.5,8 68,6.9 68.7,5.8 69.6,4.9 70.5,4 71.5,3.3 72.6,2.9 74,2.3 75.7,2 77.6,2 c 3.4,0 6.1,1 8.2,3.1 2,2.1 3.1,4.9 3.1,8.6 0,3.6 -1,6.5 -3,8.5 -2,2 -4.7,3.1 -8.1,3.1 -3.4,0 -6.2,-1 -8.2,-3.1 -2.2,-2 -3.2,-4.8 -3.2,-8.4 z m 4.8,-0.1 c 0,2.5 0.6,4.5 1.8,5.8 1.2,1.3 2.7,2 4.6,2 1.9,0 3.4,-0.7 4.6,-2 C 83.4,18.2 84,16.2 84,13.6 84,11 83.4,9.1 82.3,7.8 81.1,6.5 79.6,5.9 77.7,5.9 c -1.9,0 -3.5,0.6 -4.6,1.9 -1.3,1.4 -1.9,3.3 -1.9,5.9 z"
       fill="#ffffff"
       id="path10" />
    <path
       d="m 95.7,25.3 c 1.5464,0 2.8,-1.2536 2.8,-2.8 0,-1.5464 -1.2536,-2.8 -2.8,-2.8 -1.5464,0 -2.8,1.2536 -2.8,2.8 0,1.5464 1.2536,2.8 2.8,2.8 z"
       fill="#ffffff"
       id="path12" />
    <path
       d="m 118.8,16.8 h -11.4 l -2.6,7 h -0.9 l 8.7,-23.3 h 1.1 l 8.7,23.3 h -0.9 z m -11.1,-0.9 h 10.8 L 113.1,1.5 Z"
       fill="#ffffff"
       id="path14" />
    <path
       d="m 127,13.9 v 9.8 h -0.9 V 0.5 h 7.3 c 2.4,0 4.2,0.6 5.5,1.8 1.3,1.2 2,2.9 2,5 0,2.1 -0.6,3.7 -1.9,4.9 -1.3,1.2 -3.1,1.7 -5.5,1.8 H 127 Z m 0,-0.8 h 6.4 c 2.1,0 3.7,-0.5 4.9,-1.5 1.2,-1 1.8,-2.4 1.8,-4.2 0,-1.9 -0.6,-3.3 -1.8,-4.4 -1.2,-1.1 -2.8,-1.6 -4.9,-1.6 H 127 Z"
       fill="#ffffff"
       id="path16" />
    <path
       d="m 146.6,13.9 v 9.8 h -0.9 V 0.5 h 7.3 c 2.4,0 4.2,0.6 5.5,1.8 1.3,1.2 2,2.9 2,5 0,2.1 -0.6,3.7 -1.9,4.9 -1.3,1.2 -3.1,1.7 -5.5,1.8 h -6.5 z m 0,-0.8 h 6.4 c 2.1,0 3.7,-0.5 4.9,-1.5 1.2,-1 1.8,-2.4 1.8,-4.2 0,-1.9 -0.6,-3.3 -1.8,-4.4 -1.2,-1.1 -2.8,-1.6 -4.9,-1.6 h -6.4 z"
       fill="#ffffff"
       id="path18" />
  </g>
</svg>
