<svg width="137" height="41" viewBox="0 0 137 41" fill="none" xmlns="http://www.w3.org/2000/svg">
<path d="M135.3 35.6C135.3 37.7 133.6 39.4 131.4 39.4H5.30002C3.20002 39.4 1.40002 37.7 1.40002 35.6V5.29999C1.40002 3.19999 3.10002 1.5 5.30002 1.5H131.4C133.5 1.5 135.3 3.19999 135.3 5.29999V35.6Z" fill="white"/>
<path d="M131.5 40.3H5.40002C2.80002 40.3 0.600037 38.2 0.600037 35.6V5.29999C0.600037 2.69999 2.70002 0.599976 5.40002 0.599976H131.5C134.1 0.599976 136.3 2.69999 136.3 5.29999V35.6C136.2 38.2 134.1 40.3 131.5 40.3Z" fill="#494949"/>
<path d="M135.3 35.6C135.3 37.7 133.6 39.4 131.4 39.4H5.30002C3.20002 39.4 1.40002 37.7 1.40002 35.6V5.29999C1.40002 3.19999 3.10002 1.5 5.30002 1.5H131.4C133.5 1.5 135.3 3.19999 135.3 5.29999V35.6Z" fill="#E6E6E6"/>
<path d="M30.9 20.2C30.9 17 33.6 15.4 33.7 15.4C32.2 13.2 29.8 12.9 29 12.9C27 12.7 25.1 14.1 24.1 14.1C23.1 14.1 21.5 13 19.8 13C17.6 13 15.6 14.3 14.5 16.2C12.2 20.1 13.9 25.8 16.1 29C17.2 30.5 18.5 32.3 20.1 32.2C21.7 32.1 22.3 31.2 24.3 31.2C26.3 31.2 26.8 32.2 28.5 32.2C30.3 32.2 31.4 30.7 32.4 29.1C33.7 27.3 34.2 25.6 34.2 25.5C34.3 25.3 30.9 24.1 30.9 20.2Z" fill="#494949"/>
<path d="M27.6 10.8C28.5 9.69999 29.1001 8.20001 28.9001 6.70001C27.6001 6.80001 26 7.59998 25.1 8.59998C24.3 9.49998 23.6 11.1 23.8 12.5C25.3 12.7 26.7 11.9 27.6 10.8Z" fill="#494949"/>
<path d="M54.5 31.8H52.2L51 28H46.7L45.5 31.9H43.3L47.6 18.7H50.3L54.5 31.8ZM50.6 26.3L49.5 22.9C49.4 22.5 49.2 21.7 48.8 20.4C48.7 21 48.5 21.8 48.2 22.9L47.1 26.3H50.6Z" fill="#494949"/>
<path d="M65.6 27C65.6 28.6 65.2 29.9 64.3 30.8C63.5 31.6 62.5 32.1 61.3 32.1C60 32.1 59.1 31.7 58.5 30.7V35.7H56.4001V25.4C56.4001 24.4 56.4 23.3 56.3 22.3H58.2L58.3 23.8C59 22.7 60.1 22.1 61.6 22.1C62.7 22.1 63.7001 22.5 64.4001 23.4C65.2001 24.3 65.6 25.5 65.6 27ZM63.4001 27C63.4001 26.1 63.2 25.3 62.8 24.7C62.3 24.1 61.7001 23.8 60.9001 23.8C60.4001 23.8 59.9 24 59.5 24.3C59.1 24.6 58.8 25.1 58.7 25.7C58.6 26 58.6 26.2 58.6 26.3V27.9C58.6 28.6 58.8 29.2 59.2 29.7C59.6 30.2 60.2001 30.4 60.9001 30.4C61.7001 30.4 62.3 30.1 62.8 29.5C63.2 28.9 63.4001 28 63.4001 27Z" fill="#494949"/>
<path d="M76.7 27C76.7 28.6 76.3001 29.9 75.4001 30.8C74.6001 31.6 73.6001 32.1 72.4001 32.1C71.1001 32.1 70.2 31.7 69.6 30.7V35.7H67.5V25.4C67.5 24.4 67.5001 23.3 67.4001 22.3H69.3L69.4001 23.8C70.1001 22.7 71.2 22.1 72.7 22.1C73.8 22.1 74.8 22.5 75.5 23.4C76.3 24.3 76.7 25.5 76.7 27ZM74.5 27C74.5 26.1 74.3001 25.3 73.9001 24.7C73.4001 24.1 72.8 23.8 72 23.8C71.5 23.8 71 24 70.6 24.3C70.2 24.6 69.9 25.1 69.8 25.7C69.7 26 69.7 26.2 69.7 26.3V27.9C69.7 28.6 69.9 29.2 70.3 29.7C70.7 30.2 71.3 30.4 72 30.4C72.8 30.4 73.4001 30.1 73.9001 29.5C74.3001 28.9 74.5 28 74.5 27Z" fill="#494949"/>
<path d="M89.1 28.1C89.1 29.2 88.7001 30.1 87.9001 30.8C87.0001 31.6 85.8 32 84.3 32C82.9 32 81.7 31.7 80.8 31.2L81.3 29.4C82.2 29.9 83.3001 30.2 84.4001 30.2C85.2001 30.2 85.8 30 86.3 29.7C86.7 29.3 87 28.9 87 28.3C87 27.8 86.8001 27.3 86.4001 26.9C86.0001 26.5 85.4 26.2 84.6 25.9C82.3 25 81.1 23.8 81.1 22.1C81.1 21 81.5 20.1 82.3 19.4C83.1 18.7 84.2 18.4 85.6 18.4C86.8 18.4 87.8 18.6 88.6 19L88.1 20.7C87.3 20.3 86.5 20.1 85.5 20.1C84.7 20.1 84.2 20.3 83.7 20.6C83.3 20.9 83.2 21.3 83.2 21.8C83.2 22.3 83.4 22.8 83.8 23.1C84.2 23.4 84.8 23.8 85.7 24.1C86.9 24.6 87.7 25.1 88.2 25.7C88.8 26.5 89.1 27.2 89.1 28.1Z" fill="#494949"/>
<path d="M96.2 23.9H93.8V28.5C93.8 29.7 94.2 30.3 95.1 30.3C95.5 30.3 95.8 30.3 96.1 30.2L96.2 31.8C95.8 32 95.2 32 94.5 32C93.7 32 93 31.7 92.5 31.2C92 30.7 91.8 29.8 91.8 28.6V23.8H90.4001V22.2H91.8V20.5L93.9001 19.9V22.3H96.3C96.2 22.3 96.2 23.9 96.2 23.9Z" fill="#494949"/>
<path d="M106.8 27C106.8 28.5 106.4 29.7 105.5 30.6C104.6 31.6 103.4 32.1 102 32.1C100.6 32.1 99.5 31.6 98.6 30.7C97.8 29.8 97.3 28.6 97.3 27.2C97.3 25.7 97.7 24.5 98.6 23.6C99.5 22.7 100.6 22.2 102.1 22.2C103.5 22.2 104.7 22.7 105.5 23.6C106.4 24.4 106.8 25.6 106.8 27ZM104.6 27C104.6 26.1 104.4 25.4 104 24.8C103.6 24 102.9 23.7 102.1 23.7C101.2 23.7 100.6 24.1 100.1 24.8C99.7 25.4 99.5 26.2 99.5 27.1C99.5 28 99.7 28.7 100.1 29.3C100.6 30.1 101.2 30.4 102 30.4C102.8 30.4 103.5 30 103.9 29.2C104.4 28.7 104.6 27.9 104.6 27Z" fill="#494949"/>
<path d="M113.8 24.2C113.6 24.2 113.4 24.1 113.1 24.1C112.3 24.1 111.8 24.4 111.4 24.9C111 25.4 110.9 26 110.9 26.8V31.8H108.8V25.3C108.8 24.2 108.8 23.2 108.7 22.3H110.6L110.7 24.1H110.8C111 23.5 111.4 23 111.9 22.6C112.4 22.3 112.9 22.1 113.4 22.1C113.6 22.1 113.8 22.1 113.9 22.1L113.8 24.2Z" fill="#494949"/>
<path d="M123.4 26.6C123.4 27 123.4 27.3 123.3 27.6H116.9C116.9 28.5 117.2 29.3 117.8 29.8C118.3 30.2 119 30.5 119.9 30.5C120.9 30.5 121.7 30.4 122.5 30.1L122.8 31.6C121.9 32 120.8 32.2 119.6 32.2C118.1 32.2 116.9 31.8 116.1 30.9C115.2 30 114.8 28.9 114.8 27.4C114.8 26 115.2 24.8 116 23.8C116.8 22.8 118 22.3 119.4 22.3C120.8 22.3 121.8 22.8 122.6 23.8C123.1 24.4 123.4 25.4 123.4 26.6ZM121.3 26.1C121.3 25.5 121.2 24.9 120.9 24.5C120.5 23.9 120 23.6 119.2 23.6C118.5 23.6 117.9 23.9 117.5 24.5C117.1 25 116.9 25.5 116.9 26.1H121.3Z" fill="#494949"/>
<path d="M50.2 10.4H47.3V11.1H49.5C49.4 11.7 49.2 12.1 48.8 12.5C48.4 12.8 47.9 13 47.3 13C46.7 13 46.1 12.8 45.7 12.3C45.3 11.8 45 11.3 45 10.6C45 9.89998 45.2 9.40002 45.7 8.90002C46.1 8.50002 46.7 8.20001 47.3 8.20001C47.6 8.20001 47.9 8.30002 48.2 8.40002C48.5 8.50002 48.7001 8.70002 48.9001 8.90002L49.4001 8.40002C49.2001 8.10002 48.8001 7.90001 48.4001 7.70001C48.0001 7.50001 47.6 7.5 47.2 7.5C46.3 7.5 45.6 7.80002 45 8.40002C44.4 9.00002 44.1 9.69998 44.1 10.6C44.1 11.5 44.4 12.2 45 12.8C45.6 13.4 46.3 13.7 47.2 13.7C48.1 13.7 48.8001 13.4 49.4001 12.8C49.9001 12.3 50.1 11.6 50.1 10.8C50.2 10.7 50.2 10.6 50.2 10.4ZM51.3 7.59998V13.6H54.8V12.9H52.1V11H54.5V10.3H52.1V8.40002H54.8V7.70001L51.3 7.59998ZM59.6 8.40002V7.70001H55.5V8.40002H57.2V13.6H58V8.40002H59.6ZM63.3 7.59998H62.5V13.6H63.3V7.59998ZM68.4001 8.40002V7.70001H64.3V8.40002H66V13.6H66.8V8.40002H68.4001ZM76.1 8.40002C75.5 7.80002 74.8001 7.5 73.9001 7.5C73.0001 7.5 72.3 7.80002 71.7 8.40002C71.1 9.00002 70.8 9.69998 70.8 10.6C70.8 11.5 71.1 12.2 71.7 12.8C72.3 13.4 73.0001 13.7 73.9001 13.7C74.8001 13.7 75.5 13.4 76.1 12.8C76.7 12.2 77 11.5 77 10.6C77 9.69998 76.7 9.00002 76.1 8.40002ZM72.3 8.90002C72.7 8.50002 73.3001 8.20001 73.9001 8.20001C74.5001 8.20001 75.1 8.40002 75.5 8.90002C75.9 9.30002 76.2 9.89998 76.2 10.6C76.2 11.3 76 11.9 75.5 12.3C75.1 12.7 74.5001 13 73.9001 13C73.3001 13 72.7 12.8 72.3 12.3C71.9 11.9 71.7 11.3 71.7 10.6C71.6 9.89998 71.9 9.40002 72.3 8.90002ZM78.8 9.90002V8.79999L81.8 13.7H82.6V7.70001H81.8V11.2V12.3L78.9001 7.70001H78V13.7H78.8V9.90002Z" fill="#494949"/>
</svg>
