<?xml version="1.0" encoding="UTF-8" standalone="no"?>
<svg
   xmlns:dc="http://purl.org/dc/elements/1.1/"
   xmlns:cc="http://creativecommons.org/ns#"
   xmlns:rdf="http://www.w3.org/1999/02/22-rdf-syntax-ns#"
   xmlns:svg="http://www.w3.org/2000/svg"
   xmlns="http://www.w3.org/2000/svg"
   xmlns:sodipodi="http://sodipodi.sourceforge.net/DTD/sodipodi-0.dtd"
   xmlns:inkscape="http://www.inkscape.org/namespaces/inkscape"
   width="120"
   height="120"
   viewBox="0 0 120 120"
   fill="none"
   version="1.1"
   id="svg34"
   sodipodi:docname="linto-studio-logo-txt.svg"
   inkscape:version="1.0.2 (e86c870879, 2021-01-15)">
  <metadata
     id="metadata40">
    <rdf:RDF>
      <cc:Work
         rdf:about="">
        <dc:format>image/svg+xml</dc:format>
        <dc:type
           rdf:resource="http://purl.org/dc/dcmitype/StillImage" />
        <dc:title></dc:title>
      </cc:Work>
    </rdf:RDF>
  </metadata>
  <defs
     id="defs38" />
  <sodipodi:namedview
     pagecolor="#ffffff"
     bordercolor="#666666"
     borderopacity="1"
     objecttolerance="10"
     gridtolerance="10"
     guidetolerance="10"
     inkscape:pageopacity="0"
     inkscape:pageshadow="2"
     inkscape:window-width="1920"
     inkscape:window-height="1016"
     id="namedview36"
     showgrid="false"
     inkscape:zoom="4.6467017"
     inkscape:cx="44.147569"
     inkscape:cy="61.772563"
     inkscape:window-x="0"
     inkscape:window-y="27"
     inkscape:window-maximized="1"
     inkscape:current-layer="svg34" />
  <g
     id="g881"
     transform="matrix(0.74790126,0,0,0.74790126,14.452804,10.101688)">
    <path
       d="M 63.6,0.700026 C 29.4,-0.899974 1.20008,27.5 2.90008,61.7 c 1,20.2 12.40002,37.7 28.90002,47.2 l 14.6,-25.4 C 37.8001,78.5 32.1,69.3 32.1,58.7 32.1,42.9 44.9001,30 60.8001,30 c 15.8,0 28.7,12.8 28.7,28.7 0,10.6 -5.8001,19.9 -14.3001,24.8 l 14.6001,25.4 C 107.1,98.9 118.8,80.1 118.8,58.6 119,27.5 94.4,2.10003 63.6,0.700026 Z"
       fill="#1daf92"
       id="path2" />
    <path
       d="m 63.8,56.2 c 0,0.3 0.3,0.6 0.6,0.6 3,0 6.1,-0.3 8.1,-1.1 v 4 c 0,0.1 0,0.3 0,0.4 -0.3,0.1 -0.8,0.3 -1.4,0.5 -1.8,0.4 -4.1,0.7 -6.7,0.7 -0.3,0 -0.6,0.3 -0.6,0.6 0,0.3 0.3,0.6 0.6,0.6 2.9,0 5.9,-0.3 8,-1 -0.8,5.7 -5.7,10.1 -11.5,10.1 -5.8,0 -10.7,-4.4 -11.5,-10.1 2,0.7 5.1,1 8,1 0.3,0 0.6,-0.3 0.6,-0.6 0,-0.3 -0.3,-0.6 -0.6,-0.6 -2.5,0 -4.9,-0.2 -6.7,-0.7 -0.6,-0.2 -1.1,-0.3 -1.4,-0.5 0,-0.1 0,-0.3 0,-0.4 v -4 c 2,0.7 5.1,1.1 8.1,1.1 0.3,0 0.6,-0.3 0.6,-0.6 0,-0.3 -0.3,-0.6 -0.6,-0.6 -2.5,0 -4.9,-0.2 -6.7,-0.7 -0.6,-0.2 -1.1,-0.3 -1.4,-0.5 V 50 c 2,0.7 5.1,1.1 8.1,1.1 0.3,0 0.6,-0.3 0.6,-0.6 0,-0.3 -0.3,-0.6 -0.6,-0.6 -2.5,0 -4.9,-0.2 -6.7,-0.7 -0.6,-0.1 -1,-0.3 -1.4,-0.5 0.4,-6.1 5.5,-11 11.6,-11 3.2,0 6.1,1.3 8.2,3.5 2,2 3.2,4.6 3.4,7.6 -0.3,0.1 -0.8,0.3 -1.4,0.5 -1.8,0.4 -4.1,0.7 -6.7,0.7 -0.3,0 -0.6,0.3 -0.6,0.6 0,0.3 0.3,0.6 0.6,0.6 3,0 6.1,-0.3 8.1,-1.1 v 4.4 c -0.3,0.1 -0.8,0.3 -1.4,0.5 -1.8,0.4 -4.1,0.7 -6.7,0.7 -0.3,0 -0.6,0.2 -0.6,0.5 z"
       fill="#1daf92"
       id="path4" />
    <path
       d="m 80.5,60.6 c 0,-0.1 0,-0.1 0,0 0,-1.2 -0.9,-2.2 -2,-2.2 -1.1,0 -2,0.9 -2,2.1 0,0 0,0 0,0.1 C 76.3,69.1 69.4,76 61,76 52.5,76 45.7,69.1 45.5,60.6 c 0,0 0,0 0,-0.1 0,-1.1 -0.9,-2.1 -2,-2.1 -1.1,0 -2,0.9 -2,2.1 v 0.1 c 0.2,10.3 8.1,18.7 18.1,19.5 v 8.2 H 55 L 54.8,88.6 43.2,109 H 78.9 L 67.4,88.7 67.2,88.3 H 62.6 V 80 c 9.8,-0.7 17.7,-9.1 17.9,-19.4 z"
       fill="#1daf92"
       id="path6" />
    <path
       opacity="0.5"
       d="m 59.4,88.2 v 14.1 L 54.8,88.2 Z"
       fill="#07634b"
       id="path8" />
    <path
       opacity="0.5"
       d="m 62.4,88.2 v 14.1 L 67,88.2 Z"
       fill="#07634b"
       id="path10" />
    <path
       d="M 0.900024,132.4 V 120.2 H 3.5 v 10.2 h 6.40002 v 2.1 H 0.900024 Z"
       fill="#151515"
       id="path12" />
    <path
       d="M 11.7,122.2 V 120 h 2.4 v 2.2 z m 0,10.2 v -8.9 h 2.4 v 8.9 z"
       fill="#151515"
       id="path14" />
    <path
       d="m 25,132.4 h -2.4 v -4.6 c 0,-1 -0.1,-1.6 -0.2,-1.9 -0.1,-0.3 -0.3,-0.5 -0.5,-0.7 -0.2,-0.2 -0.5,-0.2 -0.8,-0.2 -0.4,0 -0.8,0.1 -1.1,0.3 -0.3,0.2 -0.6,0.5 -0.7,0.9 -0.1,0.4 -0.2,1.1 -0.2,2.1 v 4.1 h -2.4 v -8.9 H 19 v 1.3 c 0.8,-1 1.8,-1.5 3,-1.5 0.5,0 1,0.1 1.5,0.3 0.4,0.2 0.8,0.4 1,0.7 0.2,0.3 0.4,0.6 0.5,1 0.1,0.4 0.1,0.9 0.1,1.6 v 5.5 z"
       fill="#151515"
       id="path16" />
    <path
       d="M 30.3,132.4 V 122.1 H 26.5 V 120 h 10.1 v 2.1 h -3.8 v 10.3 z"
       fill="#151515"
       id="path18" />
    <path
       d="m 37.4,126.3 c 0,-1.3 0.2,-2.3 0.6,-3.2 0.3,-0.6 0.7,-1.2 1.2,-1.7 0.5,-0.5 1,-0.9 1.6,-1.1 0.8,-0.3 1.7,-0.5 2.7,-0.5 1.9,0 3.4,0.6 4.5,1.7 1.1,1.1 1.7,2.7 1.7,4.7 0,2 -0.6,3.6 -1.7,4.7 -1.1,1.1 -2.6,1.7 -4.5,1.7 -1.9,0 -3.4,-0.6 -4.5,-1.7 -1,-1.1 -1.6,-2.6 -1.6,-4.6 z m 2.7,-0.1 c 0,1.4 0.3,2.5 1,3.2 0.7,0.7 1.5,1.1 2.5,1.1 1,0 1.9,-0.4 2.5,-1.1 0.7,-0.7 1,-1.8 1,-3.2 0,-1.4 -0.3,-2.5 -1,-3.2 -0.6,-0.7 -1.5,-1 -2.5,-1 -1.1,0 -1.9,0.4 -2.6,1.1 -0.6,0.6 -0.9,1.7 -0.9,3.1 z"
       fill="#151515"
       id="path20" />
    <path
       d="m 56.7,128.4 2.5,-0.2 c 0.1,0.8 0.5,1.4 0.9,1.8 0.5,0.4 1.1,0.6 1.9,0.6 0.8,0 1.4,-0.2 1.9,-0.5 0.4,-0.3 0.6,-0.7 0.6,-1.2 0,-0.3 -0.1,-0.5 -0.3,-0.7 -0.2,-0.2 -0.5,-0.4 -0.9,-0.5 -0.3,-0.1 -1,-0.3 -2,-0.5 -1.4,-0.3 -2.3,-0.7 -2.9,-1.2 -0.8,-0.7 -1.2,-1.5 -1.2,-2.5 0,-0.6 0.2,-1.2 0.5,-1.8 0.4,-0.5 0.9,-1 1.6,-1.3 0.7,-0.3 1.5,-0.4 2.5,-0.4 1.6,0 2.8,0.3 3.6,1 0.8,0.7 1.2,1.6 1.3,2.7 l -2.6,0.1 c -0.1,-0.6 -0.3,-1.1 -0.7,-1.4 -0.4,-0.3 -0.9,-0.4 -1.6,-0.4 -0.7,0 -1.3,0.1 -1.7,0.4 -0.3,0.2 -0.4,0.4 -0.4,0.8 0,0.3 0.1,0.5 0.4,0.7 0.3,0.3 1.1,0.5 2.4,0.8 1.3,0.3 2.2,0.6 2.8,0.9 0.6,0.3 1.1,0.7 1.4,1.3 0.3,0.5 0.5,1.2 0.5,2 0,0.7 -0.2,1.4 -0.6,2 -0.4,0.6 -1,1.1 -1.7,1.4 -0.7,0.3 -1.7,0.5 -2.8,0.5 -1.6,0 -2.8,-0.4 -3.7,-1.1 -1,-0.9 -1.6,-1.9 -1.7,-3.3 z"
       fill="#151515"
       id="path22" />
    <path
       d="M 71.7,132.4 V 122.1 H 67.9 V 120 H 78 v 2.1 h -3.8 v 10.3 z"
       fill="#151515"
       id="path24" />
    <path
       d="m 79.3,120.1 h 2.6 v 6.7 c 0,1.1 0,1.7 0.1,2.1 0.1,0.5 0.4,0.9 0.8,1.2 0.4,0.3 1,0.5 1.7,0.5 0.7,0 1.3,-0.1 1.6,-0.4 0.4,-0.3 0.6,-0.6 0.7,-1.1 0.1,-0.4 0.1,-1.1 0.1,-2.1 v -6.8 h 2.6 v 6.5 c 0,1.5 -0.1,2.5 -0.2,3.1 -0.1,0.6 -0.4,1.1 -0.8,1.5 -0.4,0.4 -0.9,0.8 -1.5,1 -0.6,0.2 -1.4,0.4 -2.4,0.4 -1.2,0 -2.1,-0.1 -2.8,-0.4 -0.6,-0.3 -1.1,-0.6 -1.5,-1.1 -0.4,-0.4 -0.6,-0.9 -0.7,-1.4 -0.2,-0.7 -0.3,-1.8 -0.3,-3.1 z"
       fill="#151515"
       id="path26" />
    <path
       d="m 91.9,120.1 h 4.7 c 1.1,0 1.9,0.1 2.4,0.2 0.7,0.2 1.4,0.6 1.9,1.1 0.5,0.5 0.9,1.2 1.2,2 0.3,0.8 0.4,1.8 0.4,2.9 0,1 -0.1,1.9 -0.4,2.6 -0.3,0.9 -0.8,1.6 -1.4,2.2 -0.4,0.4 -1,0.7 -1.8,1 -0.6,0.2 -1.3,0.3 -2.3,0.3 h -4.8 v -12.3 z m 2.6,2 v 8.2 h 1.9 c 0.7,0 1.2,0 1.5,-0.1 0.4,-0.1 0.8,-0.3 1,-0.5 0.3,-0.2 0.5,-0.6 0.7,-1.2 0.2,-0.6 0.3,-1.3 0.3,-2.3 0,-1 -0.1,-1.7 -0.3,-2.2 -0.2,-0.5 -0.4,-0.9 -0.7,-1.2 -0.3,-0.3 -0.7,-0.5 -1.2,-0.6 -0.4,-0.1 -1.1,-0.1 -2.1,-0.1 z"
       fill="#151515"
       id="path28" />
    <path
       d="m 104.2,132.4 v -12.3 h 2.6 v 12.3 z"
       fill="#151515"
       id="path30" />
    <path
       d="m 108.6,126.3 c 0,-1.3 0.2,-2.3 0.6,-3.2 0.3,-0.6 0.7,-1.2 1.2,-1.7 0.5,-0.5 1,-0.9 1.6,-1.1 0.8,-0.3 1.7,-0.5 2.7,-0.5 1.9,0 3.4,0.6 4.5,1.7 1.1,1.1 1.7,2.7 1.7,4.7 0,2 -0.6,3.6 -1.7,4.7 -1.1,1.1 -2.6,1.7 -4.5,1.7 -1.9,0 -3.4,-0.6 -4.5,-1.7 -1.1,-1.1 -1.6,-2.6 -1.6,-4.6 z m 2.6,-0.1 c 0,1.4 0.3,2.5 1,3.2 0.7,0.7 1.5,1.1 2.5,1.1 1,0 1.9,-0.4 2.5,-1.1 0.7,-0.7 1,-1.8 1,-3.2 0,-1.4 -0.3,-2.5 -1,-3.2 -0.6,-0.7 -1.5,-1 -2.5,-1 -1.1,0 -1.9,0.4 -2.6,1.1 -0.5,0.6 -0.9,1.7 -0.9,3.1 z"
       fill="#151515"
       id="path32" />
  </g>
</svg>
