<?xml version="1.0" encoding="UTF-8" standalone="no"?>
<svg
   xmlns:dc="http://purl.org/dc/elements/1.1/"
   xmlns:cc="http://creativecommons.org/ns#"
   xmlns:rdf="http://www.w3.org/1999/02/22-rdf-syntax-ns#"
   xmlns:svg="http://www.w3.org/2000/svg"
   xmlns="http://www.w3.org/2000/svg"
   xmlns:sodipodi="http://sodipodi.sourceforge.net/DTD/sodipodi-0.dtd"
   xmlns:inkscape="http://www.inkscape.org/namespaces/inkscape"
   width="60"
   height="60"
   viewBox="0 0 60 60"
   fill="none"
   version="1.1"
   id="svg8"
   sodipodi:docname="linto-studio-logo.svg"
   inkscape:version="1.0.2 (e86c870879, 2021-01-15)">
  <metadata
     id="metadata14">
    <rdf:RDF>
      <cc:Work
         rdf:about="">
        <dc:format>image/svg+xml</dc:format>
        <dc:type
           rdf:resource="http://purl.org/dc/dcmitype/StillImage" />
        <dc:title></dc:title>
      </cc:Work>
    </rdf:RDF>
  </metadata>
  <defs
     id="defs12" />
  <sodipodi:namedview
     pagecolor="#ffffff"
     bordercolor="#666666"
     borderopacity="1"
     objecttolerance="10"
     gridtolerance="10"
     guidetolerance="10"
     inkscape:pageopacity="0"
     inkscape:pageshadow="2"
     inkscape:window-width="1920"
     inkscape:window-height="1016"
     id="namedview10"
     showgrid="false"
     inkscape:zoom="7.3815049"
     inkscape:cx="24.67224"
     inkscape:cy="52.242046"
     inkscape:window-x="0"
     inkscape:window-y="27"
     inkscape:window-maximized="1"
     inkscape:current-layer="svg8" />
  <g
     id="g842"
     transform="matrix(1.1939119,0,0,1.1939119,3.8661911,5.3603446)">
    <path
       d="M 22.9999,0.600003 C 10.2999,3.41423e-6 -0.100055,10.5 0.499945,23.2 c 0.4,7.5 4.599955,14 10.699955,17.5 l 5.4,-9.4 C 13.3999,29.5 11.3,26 11.3,22.1 c 0,-5.9 4.8,-10.6 10.6,-10.6 5.9,0 10.5999,4.8 10.5999,10.6 0,3.9 -2.1,7.4 -5.3,9.2 l 5.4,9.4 C 38.9999,37 43.3,30 43.3,22.1 43.5,10.6 34.3999,1.2 22.9999,0.600003 Z"
       fill="#fcfcfc"
       id="path2" />
    <path
       d="m 23.1,21.2 c 0,0.1 0.1,0.2 0.2,0.2 1.1,0 2.3,-0.1 3,-0.4 v 1.5 c 0,0.1 0,0.1 0,0.2 -0.1,0.1 -0.3,0.1 -0.5,0.2 -0.7,0.2 -1.5,0.3 -2.5,0.3 -0.1,0 -0.2,0.1 -0.2,0.2 0,0.1 0.1,0.2 0.2,0.2 1.1,0 2.2,-0.1 3,-0.4 -0.3,2.1 -2.1,3.7 -4.3,3.7 -2.2,0 -4,-1.6 -4.3,-3.7 0.7,0.3 1.9,0.4 3,0.4 0.1,0 0.2,-0.1 0.2,-0.2 0,-0.1 -0.1,-0.2 -0.2,-0.2 -0.9,0 -1.8,-0.1 -2.5,-0.3 -0.2,-0.1 -0.4,-0.1 -0.5,-0.2 0,-0.1 0,-0.1 0,-0.2 V 21 c 0.7,0.3 1.9,0.4 3,0.4 0.1,0 0.2,-0.1 0.2,-0.2 0,-0.1 -0.1,-0.2 -0.2,-0.2 -0.9,0 -1.8,-0.1 -2.5,-0.3 -0.2,-0.1 -0.4,-0.1 -0.5,-0.2 v -1.6 c 0.7,0.3 1.9,0.4 3,0.4 0.1,0 0.2,-0.1 0.2,-0.2 0,-0.1 -0.1,-0.2 -0.2,-0.2 -0.9,0 -1.8,-0.1 -2.5,-0.3 -0.2,-0.1 -0.4,-0.1 -0.5,-0.2 0.1,-2.3 2,-4.1 4.3,-4.1 1.2,0 2.3,0.5 3,1.3 0.7,0.7 1.2,1.7 1.3,2.8 -0.1,0.1 -0.3,0.1 -0.5,0.2 -0.7,0.2 -1.5,0.3 -2.5,0.3 -0.1,0 -0.2,0.1 -0.2,0.2 0,0.1 0.1,0.2 0.2,0.2 1.1,0 2.3,-0.1 3,-0.4 v 1.6 c -0.1,0.1 -0.3,0.1 -0.5,0.2 -0.7,0.2 -1.5,0.3 -2.5,0.3 -0.1,0 -0.2,0.1 -0.2,0.2 z"
       fill="#fcfcfc"
       id="path4" />
    <path
       d="m 29.2,22.8 c 0,-0.5 -0.3,-0.8 -0.8,-0.8 -0.5,0 -0.8,0.3 -0.8,0.8 -0.1,3.2 -2.6,5.7 -5.7,5.7 -3.1,0 -5.7,-2.5 -5.7,-5.7 0,-0.4 -0.3,-0.8 -0.8,-0.8 -0.4,0 -0.8,0.3 -0.8,0.8 0.1,3.8 3,6.9 6.7,7.2 v 3 h -1.7 l -0.1,0.1 -4.3,7.6 H 28.4 L 24.1,33.2 24,33 h -1.7 v -3 c 3.9,-0.3 6.9,-3.4 6.9,-7.2 z"
       fill="#fcfcfc"
       id="path6" />
  </g>
</svg>
